<svg width="33" height="32" viewBox="0 0 33 32" fill="none" xmlns="http://www.w3.org/2000/svg">
<g clip-path="url(#clip0_52_17)">
<path d="M16.0044 32C12.5678 31.9988 9.22295 30.8908 6.46524 28.8401C3.70754 26.7894 1.68361 23.9051 0.693194 20.6143C-0.29722 17.3235 -0.201452 13.8012 0.966313 10.5691C2.13408 7.33695 4.31174 4.56687 7.1768 2.66905C10.0419 0.771237 13.442 -0.153386 16.8736 0.032118C20.3052 0.217622 23.5858 1.50339 26.2296 3.699C28.8733 5.89461 30.7397 8.8833 31.5522 12.2225C32.3648 15.5616 32.0803 19.0737 30.7409 22.2386C29.1188 26.0695 26.0695 29.1188 22.2386 30.7409C20.2669 31.5776 18.1462 32.0059 16.0044 32ZM4.47491 8.71732V23.2257H11.5295C12.1657 23.2298 12.7998 23.1516 13.416 22.9932C14.0067 22.8427 14.5654 22.5871 15.0655 22.2386C15.5464 21.8958 15.9401 21.445 16.215 20.9224C16.5384 20.2553 16.6876 19.5171 16.6484 18.7768C16.6093 18.0364 16.3832 17.3181 15.9912 16.6888C15.504 16.0151 14.7935 15.5363 13.9863 15.3376C14.5775 15.0759 15.088 14.6609 15.4648 14.1355C15.8106 13.5895 15.9834 12.9519 15.9605 12.306C15.9776 11.7194 15.8637 11.1364 15.6271 10.5994C15.4159 10.1529 15.0924 9.76895 14.6882 9.48508C14.2441 9.19023 13.7462 8.98598 13.2229 8.88404C12.6008 8.75696 11.967 8.69521 11.3321 8.69977L4.47491 8.71732ZM22.4272 12.1788C21.6738 12.1741 20.9273 12.3234 20.2336 12.6175C19.5953 12.8932 19.0192 13.2948 18.5397 13.7984C18.0603 14.302 17.6874 14.8971 17.4434 15.5481C17.1821 16.2497 17.0512 16.9931 17.0573 17.7417C17.048 18.5041 17.1758 19.262 17.4346 19.9792C17.6677 20.6302 18.0304 21.2272 18.5007 21.734C18.9682 22.2281 19.5389 22.6131 20.1722 22.8616C20.8861 23.1344 21.6455 23.2684 22.4097 23.2564C23.4907 23.2921 24.5584 23.0099 25.4807 22.4448C26.3988 21.7866 27.0594 20.8296 27.3496 19.7379H24.8094C24.6632 20.1257 24.3893 20.4521 24.0329 20.6636C23.5888 20.9621 23.063 21.1154 22.5281 21.1023C21.8464 21.1448 21.1753 20.9179 20.6592 20.4705C20.169 19.9039 19.916 19.1701 19.9528 18.4217H27.5339C27.5899 17.6365 27.5218 16.8474 27.3321 16.0834C27.1555 15.3657 26.8411 14.6893 26.4064 14.0916C25.9794 13.5066 25.4222 13.029 24.7787 12.6965C24.0509 12.3377 23.2472 12.1601 22.436 12.1788H22.4272ZM19.4527 9.45437V11.082H25.3227V9.45437H19.4527ZM7.66877 20.7601V16.7722H11.1478C11.7408 16.7451 12.3264 16.913 12.8149 17.2504C13.0378 17.4467 13.2112 17.6928 13.321 17.9688C13.4308 18.2448 13.4738 18.5428 13.4467 18.8385C13.4604 19.1612 13.3941 19.4822 13.2536 19.773C13.1274 20.0157 12.9418 20.2225 12.714 20.374C12.4839 20.5187 12.2299 20.6212 11.9638 20.6767C11.6749 20.7344 11.381 20.7637 11.0864 20.7645H7.66877V20.7601ZM24.6471 16.5879H19.9528C19.9699 16.3526 20.0141 16.12 20.0845 15.8947C20.1633 15.6273 20.2945 15.3783 20.4705 15.1621C20.6725 14.9209 20.9218 14.7237 21.2032 14.583C21.5669 14.4147 21.9653 14.335 22.3658 14.3504C22.6537 14.3286 22.943 14.3682 23.2145 14.4665C23.486 14.5648 23.7336 14.7197 23.9408 14.9208C24.3308 15.3993 24.5813 15.9762 24.6647 16.5879H24.6471ZM7.66877 14.5961V11.2005H10.674C10.9446 11.1997 11.2148 11.2232 11.4812 11.2707C11.729 11.3111 11.967 11.3974 12.1832 11.5251C12.3893 11.6486 12.5577 11.8261 12.6701 12.0384C12.8029 12.2956 12.8664 12.5828 12.8544 12.872C12.877 13.1194 12.8389 13.3686 12.7433 13.598C12.6477 13.8274 12.4976 14.0299 12.306 14.1881C11.8942 14.4718 11.4018 14.6149 10.9021 14.5961H7.66877Z" fill="black"/>
</g>
<defs>
<clipPath id="clip0_52_17">
<rect width="32.0088" height="32" fill="white"/>
</clipPath>
</defs>
</svg>
