<svg width="49" height="48" viewBox="0 0 49 48" fill="none" xmlns="http://www.w3.org/2000/svg">
<path d="M20.2568 23.2188C20.2568 23.2188 24.8153 22.8724 24.8153 17.4178C24.8153 11.9677 21.7236 9.28109 16.9978 9.28109L0.808716 9.25549V39.3748H17.3743C17.3743 39.3748 25.6572 39.6368 25.6572 30.339C25.6572 30.339 26.2656 23.2188 20.2568 23.2188ZM6.83258 13.7734H15.1154C15.1154 13.7734 17.9496 13.8201 17.9496 17.4946C17.9496 21.3032 15.1154 21.3032 15.1154 21.3032H6.83258V13.7734ZM15.8684 34.8569H6.83258V25.8211H15.8684C15.8684 25.8211 20.3863 25.8678 20.3863 30.339C20.3863 34.8102 16.519 34.8569 15.8684 34.8569Z" fill="#0f1017"/>
<path d="M38.4582 16.786C27.1439 16.786 27.1635 28.0808 27.1635 28.0808C27.1635 28.0808 26.4105 39.3755 38.4582 39.3755C38.4582 39.3755 49 39.3755 49 30.3397H42.9761C42.9761 30.3397 42.9761 34.8576 38.4582 34.8576C38.4582 34.8576 33.9403 34.8576 33.9403 28.8337C33.9403 28.8337 45.9881 28.8337 49 28.8337C49 25.8218 49 16.786 38.4582 16.786ZM33.9403 25.8218C33.9403 25.8218 33.8409 21.3039 38.4582 21.3039C43.074 21.3039 42.9761 25.8218 42.9761 25.8218H33.9403Z" fill="#0f1017"/>
<path d="M44.4825 12.2677H32.4348V15.2796H44.4825V12.2677Z" fill="#0f1017"/>
</svg>
