<svg width="16" height="17" viewBox="0 0 16 17" fill="none" xmlns="http://www.w3.org/2000/svg">
<path d="M15.3642 7.53493C15.4922 8.72533 15.4346 9.78133 15.1914 10.7029C14.961 11.6245 14.5962 12.4245 14.097 13.1029C13.6106 13.7685 13.0346 14.3189 12.369 14.7541C11.7034 15.1765 10.993 15.4965 10.2378 15.7141C9.49541 15.9189 8.75941 16.0213 8.02981 16.0213C7.30021 16.0213 6.55781 15.9253 5.80261 15.7333C5.04741 15.5413 4.33061 15.2405 3.65221 14.8309C2.98661 14.4213 2.39781 13.8901 1.88581 13.2373C1.38661 12.5845 1.01541 11.8101 0.77221 10.9141C0.52901 10.0053 0.47141 8.95573 0.59941 7.76533C0.70181 6.74133 0.95781 5.78773 1.36741 4.90453C1.77701 4.00853 2.30821 3.23413 2.96101 2.58133C3.61381 1.91573 4.36261 1.40373 5.20741 1.04533C6.05221 0.674133 6.95461 0.501333 7.91461 0.526933C7.97861 0.526933 8.07461 0.482133 8.20261 0.392533C8.33061 0.290133 8.50341 0.194133 8.72101 0.104533C8.93861 0.0149335 9.20101 -0.0170665 9.50821 0.00853317C10.0842 0.0597333 10.6922 0.296533 11.3322 0.718933C11.9722 1.14133 12.5802 1.70453 13.1562 2.40853C13.7322 3.09973 14.2186 3.88693 14.6154 4.77013C15.0122 5.65333 15.2618 6.57493 15.3642 7.53493ZM8.08741 12.4693C8.53541 12.4565 8.95781 12.3925 9.35461 12.2773C9.76421 12.1621 10.129 11.9509 10.449 11.6437C10.769 11.3365 11.025 10.9013 11.217 10.3381C11.4218 9.77493 11.5306 9.05173 11.5434 8.16853C11.5562 7.55413 11.4218 6.95893 11.1402 6.38293C10.8586 5.80693 10.4682 5.32053 9.96901 4.92373C9.46981 4.51413 8.90021 4.27733 8.26021 4.21333C7.56901 4.13653 6.98021 4.20693 6.49381 4.42453C6.00741 4.62933 5.60421 4.93653 5.28421 5.34613C4.97701 5.74293 4.74021 6.19093 4.57381 6.69013C4.40741 7.18933 4.30501 7.69493 4.26661 8.20693C4.18981 9.09013 4.27301 9.81333 4.51621 10.3765C4.75941 10.9397 5.08581 11.3749 5.49541 11.6821C5.90501 11.9893 6.34021 12.2005 6.80101 12.3157C7.27461 12.4309 7.70341 12.4821 8.08741 12.4693Z" fill="white"/>
</svg>
