<svg width="32" height="32" viewBox="0 0 32 32" fill="none" xmlns="http://www.w3.org/2000/svg">
<g clip-path="url(#clip0_52_8)">
<path fill-rule="evenodd" clip-rule="evenodd" d="M16 0C7.16344 0 0 7.16344 0 16C0 24.8366 7.16344 32 16 32C24.8366 32 32 24.8366 32 16C32 7.16344 24.8366 0 16 0ZM25.5016 8.42019C25.7905 9.01882 25.9543 9.67008 25.9831 10.3342C25.9985 10.5065 26 13.2529 26 15.9931C26 18.7333 25.9938 21.4843 25.98 21.6566C25.9494 22.3133 25.7894 22.9574 25.5093 23.5521C25.2442 24.101 24.8626 24.5855 24.3909 24.9716C23.9193 25.3577 23.3691 25.6363 22.7787 25.7877C22.2856 25.9092 21.7805 25.9753 21.2727 25.9846C21.0312 26 18.5098 26 15.9808 26C13.4517 26 10.9304 25.9923 10.6827 25.9815C10.1933 25.9675 9.70669 25.9031 9.23052 25.7892C8.64203 25.6369 8.09345 25.3591 7.62239 24.9748C7.15134 24.5905 6.76897 24.1088 6.5015 23.5629C6.2246 22.989 6.0923 22.4643 6.02308 21.6304C6 21.3935 6 20.1734 6 16.0008V12.7451C6 10.4211 6.02331 10.2628 6.08696 9.83046L6.0923 9.79414C6.20613 8.87916 6.61242 8.02543 7.25067 7.3601C7.58042 7.01362 7.96963 6.72909 8.39982 6.52004C8.98592 6.23079 9.51358 6.09539 10.3704 6.02462C10.615 6 11.8288 6 15.9992 6H19.259C21.6134 6.00455 21.746 6.02402 22.1904 6.08928L22.2111 6.09231C23.1253 6.20774 23.9786 6.61263 24.6463 7.24779C25.0001 7.58348 25.2899 7.98075 25.5016 8.42019ZM22.9956 20.8381C23.2092 20.2639 23.3251 19.6581 23.3387 19.0456C23.374 18.2579 23.3771 18.0009 23.3771 15.9946C23.3771 13.9883 23.3679 13.7375 23.3325 12.9498C23.319 12.3373 23.203 11.7315 22.9895 11.1573C22.8001 10.6682 22.5107 10.2239 22.1399 9.85304C21.769 9.48213 21.3249 9.19272 20.8358 9.00331C20.2616 8.78826 19.6551 8.67224 19.0421 8.6602C18.2544 8.62482 17.9991 8.61559 15.9992 8.61559C13.9994 8.61559 13.7425 8.62482 12.9487 8.66636C12.3362 8.67839 11.7302 8.79441 11.1565 9.00946C10.6675 9.19887 10.2233 9.48829 9.85244 9.85919C9.4816 10.2301 9.19223 10.6743 9.00285 11.1635C8.78783 11.7372 8.67183 12.3433 8.6598 12.9559C8.62441 13.7437 8.61518 14.0006 8.61518 16.0008C8.61518 18.0009 8.62441 18.2579 8.6721 19.0456C8.68413 19.6582 8.80013 20.2643 9.01515 20.8381C9.20544 21.3267 9.49513 21.7704 9.86586 22.1412C10.2366 22.512 10.6803 22.8018 11.1688 22.9921C11.7425 23.2071 12.3485 23.3231 12.961 23.3352C13.7486 23.3706 13.9994 23.3798 16.0054 23.3798C18.0114 23.3798 18.2621 23.3706 19.0498 23.3352C19.6623 23.3231 20.2683 23.2071 20.8419 22.9921C21.3305 22.8018 21.7742 22.512 22.1449 22.1412C22.5156 21.7704 22.8053 21.3267 22.9956 20.8381ZM21.7557 11.645C21.6332 11.3263 21.4452 11.0368 21.2038 10.7954C20.9624 10.5539 20.673 10.3659 20.3543 10.2434C19.9155 10.0802 19.4517 9.9943 18.9836 9.98954C18.2052 9.95415 17.9714 9.94646 15.9992 9.94646H15.3377C13.9532 9.94646 13.6979 9.95723 13.0164 9.988C12.5483 9.99276 12.0845 10.0787 11.6457 10.2419C11.3268 10.3642 11.0371 10.5522 10.7954 10.7937C10.5538 11.0352 10.3655 11.3247 10.2428 11.6435C10.081 12.0833 9.99518 12.5474 9.98892 13.0159C9.95354 13.7944 9.94585 14.0268 9.94585 15.9992C9.94585 17.9717 9.95354 18.2056 9.98892 18.9841C9.9952 19.4516 10.081 19.9147 10.2428 20.3534C10.3655 20.6723 10.5538 20.9618 10.7954 21.2032C11.0371 21.4447 11.3268 21.6327 11.6457 21.7551C12.0846 21.918 12.5482 22.0044 13.0164 22.0105C13.7948 22.0458 14.0286 22.0535 15.9992 22.0535C17.9698 22.0535 18.2052 22.0535 18.9836 22.0105C19.4518 22.0044 19.9154 21.918 20.3543 21.7551C20.6725 21.6322 20.9615 21.4441 21.2028 21.203C21.4442 20.9619 21.6325 20.6731 21.7557 20.3549C21.9189 19.9161 22.0048 19.4523 22.0095 18.9841C22.0449 18.2056 22.0526 17.9717 22.0526 16.0008C22.0526 14.0298 22.0526 13.796 22.0095 13.0175C22.0048 12.5488 21.9189 12.0844 21.7557 11.645ZM15.9992 19.7934C14.9935 19.7934 14.029 19.3938 13.3179 18.6825C12.6067 17.9713 12.2072 17.0066 12.2072 16.0008C12.2072 14.9949 12.6067 14.0302 13.3179 13.319C14.029 12.6077 14.9935 12.2082 15.9992 12.2082C17.0049 12.2082 17.9694 12.6077 18.6806 13.319C19.3917 14.0302 19.7912 14.9949 19.7912 16.0008C19.7912 17.0066 19.3917 17.9713 18.6806 18.6825C17.9694 19.3938 17.0049 19.7934 15.9992 19.7934ZM19.942 12.9451C19.8256 12.9451 19.7104 12.9222 19.6029 12.8777C19.4954 12.8332 19.3977 12.7679 19.3154 12.6856C19.2332 12.6033 19.1679 12.5056 19.1234 12.3981C19.0788 12.2905 19.0559 12.1753 19.0559 12.0589C19.0559 11.9425 19.0788 11.8273 19.1234 11.7198C19.1679 11.6123 19.2332 11.5146 19.3154 11.4323C19.3977 11.35 19.4954 11.2847 19.6029 11.2402C19.7104 11.1956 19.8256 11.1727 19.942 11.1727C20.0584 11.1727 20.1736 11.1956 20.2811 11.2402C20.3886 11.2847 20.4863 11.35 20.5686 11.4323C20.6508 11.5146 20.7161 11.6123 20.7606 11.7198C20.8052 11.8273 20.8281 11.9425 20.8281 12.0589C20.8281 12.1753 20.8052 12.2905 20.7606 12.3981C20.7161 12.5056 20.6508 12.6033 20.5686 12.6856C20.4863 12.7679 20.3886 12.8332 20.2811 12.8777C20.1736 12.9222 20.0584 12.9451 19.942 12.9451ZM18.4606 16.0008C18.4606 17.3603 17.3586 18.4625 15.9992 18.4625C14.6399 18.4625 13.5379 17.3603 13.5379 16.0008C13.5379 14.6412 14.6399 13.539 15.9992 13.539C17.3586 13.539 18.4606 14.6412 18.4606 16.0008Z" fill="black"/>
</g>
<defs>
<clipPath id="clip0_52_8">
<rect width="32" height="32" fill="white"/>
</clipPath>
</defs>
</svg>
