<svg width="50" height="49" viewBox="0 0 50 49" fill="#0f1017" xmlns="http://www.w3.org/2000/svg">
<path d="M16.9747 24.9737C16.9747 20.5507 20.5614 16.9643 24.987 16.9643C29.4126 16.9643 33.0012 20.5507 33.0012 24.9737C33.0012 29.3966 29.4126 32.9831 24.987 32.9831C20.5614 32.9831 16.9747 29.3966 16.9747 24.9737ZM12.6423 24.9737C12.6423 31.7875 18.169 37.3109 24.987 37.3109C31.8049 37.3109 37.3316 31.7875 37.3316 24.9737C37.3316 18.1598 31.8049 12.6365 24.987 12.6365C18.169 12.6365 12.6423 18.1598 12.6423 24.9737ZM34.9354 12.1473C34.9352 12.7175 35.1041 13.275 35.4209 13.7493C35.7378 14.2235 36.1882 14.5933 36.7152 14.8117C37.2423 15.0301 37.8223 15.0875 38.382 14.9764C38.9416 14.8654 39.4558 14.591 39.8594 14.188C40.263 13.7849 40.538 13.2713 40.6495 12.7121C40.761 12.1528 40.7041 11.5731 40.486 11.0462C40.2679 10.5193 39.8983 10.0688 39.424 9.75183C38.9497 9.43484 38.392 9.26552 37.8214 9.26529H37.8203C37.0555 9.26565 36.3221 9.56937 35.7812 10.1097C35.2402 10.6501 34.9361 11.3829 34.9354 12.1473V12.1473ZM15.2745 44.5305C12.9306 44.4238 11.6567 44.0337 10.8101 43.704C9.68764 43.2673 8.8868 42.7472 8.04479 41.9068C7.20279 41.0665 6.68159 40.2669 6.24655 39.1452C5.91652 38.2994 5.5261 37.0259 5.41955 34.6834C5.303 32.1508 5.27973 31.3901 5.27973 24.9739C5.27973 18.5577 5.30492 17.7991 5.41955 15.2644C5.52629 12.9219 5.91959 11.6508 6.24655 10.8026C6.68351 9.68085 7.20395 8.88049 8.04479 8.03899C8.88564 7.19749 9.68572 6.6766 10.8101 6.24182C11.6563 5.91199 12.9306 5.5218 15.2745 5.41532C17.8086 5.29884 18.5698 5.27558 24.987 5.27558C31.4041 5.27558 32.1661 5.30076 34.7023 5.41532C37.0462 5.522 38.318 5.91507 39.1668 6.24182C40.2892 6.6766 41.09 7.19865 41.932 8.03899C42.774 8.87934 43.2933 9.68085 43.7303 10.8026C44.0603 11.6483 44.4507 12.9219 44.5573 15.2644C44.6738 17.7991 44.6971 18.5577 44.6971 24.9739C44.6971 31.3901 44.6738 32.1487 44.5573 34.6834C44.4505 37.0259 44.0582 38.2991 43.7303 39.1452C43.2933 40.2669 42.7729 41.0673 41.932 41.9068C41.0912 42.7464 40.2892 43.2673 39.1668 43.704C38.3205 44.0339 37.0462 44.424 34.7023 44.5305C32.1682 44.647 31.407 44.6703 24.987 44.6703C18.5669 44.6703 17.8078 44.647 15.2745 44.5305V44.5305ZM15.0755 1.09289C12.5162 1.20937 10.7674 1.61493 9.2401 2.20886C7.65841 2.82221 6.31944 3.64506 4.98143 4.98015C3.64342 6.31525 2.82219 7.65553 2.20848 9.23627C1.61419 10.7636 1.20838 12.5104 1.09183 15.0681C0.973361 17.6299 0.946243 18.4489 0.946243 24.9737C0.946243 31.4985 0.973361 32.3175 1.09183 34.8793C1.20838 37.4372 1.61419 39.1838 2.20848 40.7111C2.82219 42.2909 3.64361 43.6327 4.98143 44.9672C6.31925 46.3017 7.65841 47.1234 9.2401 47.7385C10.7702 48.3324 12.5162 48.738 15.0755 48.8545C17.6401 48.971 18.4583 49 24.987 49C31.5157 49 32.3352 48.9729 34.8985 48.8545C37.4579 48.738 39.2056 48.3324 40.7338 47.7385C42.3146 47.1234 43.6545 46.3023 44.9925 44.9672C46.3305 43.6321 47.15 42.2909 47.7654 40.7111C48.3597 39.1838 48.7675 37.437 48.8821 34.8793C48.9986 32.3155 49.0258 31.4985 49.0258 24.9737C49.0258 18.4489 48.9986 17.6299 48.8821 15.0681C48.7655 12.5102 48.3597 10.7626 47.7654 9.23627C47.15 7.65649 46.3284 6.31736 44.9925 4.98015C43.6566 3.64295 42.3146 2.82221 40.7358 2.20886C39.2056 1.61493 37.4577 1.20745 34.9004 1.09289C32.3371 0.976411 31.5176 0.947388 24.9889 0.947388C18.4602 0.947388 17.6401 0.974489 15.0755 1.09289Z" fill="#0f1017"/>
<path d="M16.9747 24.9737C16.9747 20.5507 20.5614 16.9643 24.987 16.9643C29.4126 16.9643 33.0012 20.5507 33.0012 24.9737C33.0012 29.3966 29.4126 32.9831 24.987 32.9831C20.5614 32.9831 16.9747 29.3966 16.9747 24.9737ZM12.6423 24.9737C12.6423 31.7875 18.169 37.3109 24.987 37.3109C31.8049 37.3109 37.3316 31.7875 37.3316 24.9737C37.3316 18.1598 31.8049 12.6365 24.987 12.6365C18.169 12.6365 12.6423 18.1598 12.6423 24.9737ZM34.9354 12.1473C34.9352 12.7175 35.1041 13.275 35.4209 13.7493C35.7378 14.2235 36.1882 14.5933 36.7152 14.8117C37.2423 15.0301 37.8223 15.0875 38.382 14.9764C38.9416 14.8654 39.4558 14.591 39.8594 14.188C40.263 13.7849 40.538 13.2713 40.6495 12.7121C40.761 12.1528 40.7041 11.5731 40.486 11.0462C40.2679 10.5193 39.8983 10.0688 39.424 9.75183C38.9497 9.43484 38.392 9.26552 37.8214 9.26529H37.8203C37.0555 9.26565 36.3221 9.56937 35.7812 10.1097C35.2402 10.6501 34.9361 11.3829 34.9354 12.1473V12.1473ZM15.2745 44.5305C12.9306 44.4238 11.6567 44.0337 10.8101 43.704C9.68764 43.2673 8.8868 42.7472 8.04479 41.9068C7.20279 41.0665 6.68159 40.2669 6.24655 39.1452C5.91652 38.2994 5.5261 37.0259 5.41955 34.6834C5.303 32.1508 5.27973 31.3901 5.27973 24.9739C5.27973 18.5577 5.30492 17.7991 5.41955 15.2644C5.52629 12.9219 5.91959 11.6508 6.24655 10.8026C6.68351 9.68085 7.20395 8.88049 8.04479 8.03899C8.88564 7.19749 9.68572 6.6766 10.8101 6.24182C11.6563 5.91199 12.9306 5.5218 15.2745 5.41532C17.8086 5.29884 18.5698 5.27558 24.987 5.27558C31.4041 5.27558 32.1661 5.30076 34.7023 5.41532C37.0462 5.522 38.318 5.91507 39.1668 6.24182C40.2892 6.6766 41.09 7.19865 41.932 8.03899C42.774 8.87934 43.2933 9.68085 43.7303 10.8026C44.0603 11.6483 44.4507 12.9219 44.5573 15.2644C44.6738 17.7991 44.6971 18.5577 44.6971 24.9739C44.6971 31.3901 44.6738 32.1487 44.5573 34.6834C44.4505 37.0259 44.0582 38.2991 43.7303 39.1452C43.2933 40.2669 42.7729 41.0673 41.932 41.9068C41.0912 42.7464 40.2892 43.2673 39.1668 43.704C38.3205 44.0339 37.0462 44.424 34.7023 44.5305C32.1682 44.647 31.407 44.6703 24.987 44.6703C18.5669 44.6703 17.8078 44.647 15.2745 44.5305V44.5305ZM15.0755 1.09289C12.5162 1.20937 10.7674 1.61493 9.2401 2.20886C7.65841 2.82221 6.31944 3.64506 4.98143 4.98015C3.64342 6.31525 2.82219 7.65553 2.20848 9.23627C1.61419 10.7636 1.20838 12.5104 1.09183 15.0681C0.973361 17.6299 0.946243 18.4489 0.946243 24.9737C0.946243 31.4985 0.973361 32.3175 1.09183 34.8793C1.20838 37.4372 1.61419 39.1838 2.20848 40.7111C2.82219 42.2909 3.64361 43.6327 4.98143 44.9672C6.31925 46.3017 7.65841 47.1234 9.2401 47.7385C10.7702 48.3324 12.5162 48.738 15.0755 48.8545C17.6401 48.971 18.4583 49 24.987 49C31.5157 49 32.3352 48.9729 34.8985 48.8545C37.4579 48.738 39.2056 48.3324 40.7338 47.7385C42.3146 47.1234 43.6545 46.3023 44.9925 44.9672C46.3305 43.6321 47.15 42.2909 47.7654 40.7111C48.3597 39.1838 48.7675 37.437 48.8821 34.8793C48.9986 32.3155 49.0258 31.4985 49.0258 24.9737C49.0258 18.4489 48.9986 17.6299 48.8821 15.0681C48.7655 12.5102 48.3597 10.7626 47.7654 9.23627C47.15 7.65649 46.3284 6.31736 44.9925 4.98015C43.6566 3.64295 42.3146 2.82221 40.7358 2.20886C39.2056 1.61493 37.4577 1.20745 34.9004 1.09289C32.3371 0.976411 31.5176 0.947388 24.9889 0.947388C18.4602 0.947388 17.6401 0.974489 15.0755 1.09289Z" fill="#0f1017"/>
</svg>
