<svg width="32" height="32" viewBox="0 0 32 32" fill="none" xmlns="http://www.w3.org/2000/svg">
<g clip-path="url(#clip0_52_4)">
<path d="M16 0C12.8355 0 9.74207 0.938384 7.11088 2.69649C4.4797 4.45459 2.42894 6.95345 1.21793 9.87707C0.00693251 12.8007 -0.309921 16.0177 0.307443 19.1214C0.924806 22.2251 2.44866 25.0761 4.6863 27.3137C6.92394 29.5513 9.77487 31.0752 12.8786 31.6926C15.9823 32.3099 19.1993 31.9931 22.1229 30.7821C25.0466 29.5711 27.5454 27.5203 29.3035 24.8891C31.0616 22.2579 32 19.1645 32 16C31.9988 11.7569 30.3127 7.68793 27.3124 4.6876C24.3121 1.68728 20.2431 0.00118638 16 0ZM11.0769 25.3315H7.04896V12.2943H11.0769V25.3315ZM9.05399 10.5891C8.5778 10.5935 8.11099 10.4566 7.7126 10.1957C7.31421 9.93481 7.00212 9.56164 6.81581 9.12339C6.6295 8.68513 6.57733 8.20147 6.6659 7.73356C6.75446 7.26565 6.97979 6.83451 7.31338 6.49466C7.64697 6.15481 8.07384 5.92151 8.54002 5.82427C9.0062 5.72702 9.49075 5.7702 9.9324 5.94833C10.374 6.12646 10.7529 6.43156 11.0212 6.82503C11.2895 7.2185 11.435 7.68269 11.4394 8.15888V8.18126C11.4418 8.81594 11.1926 9.4257 10.7463 9.877C10.3001 10.3283 9.69314 10.5844 9.05847 10.5891H9.05399ZM26.2221 25.3315H22.1941V18.4884C22.1941 16.6131 21.4915 15.5524 20.028 15.5524C18.4123 15.5524 17.5709 16.6445 17.5709 18.475V25.3315H13.6727V12.2943H17.5485V14.0531C17.9618 13.3841 18.5414 12.8337 19.2309 12.4556C19.9205 12.0775 20.6962 11.8847 21.4825 11.8959C24.2484 11.8959 26.2266 13.5877 26.2266 17.0786L26.2221 25.3315Z" fill="black"/>
</g>
<defs>
<clipPath id="clip0_52_4">
<rect width="32" height="32" fill="white"/>
</clipPath>
</defs>
</svg>
