<svg width="24" height="20" viewBox="0 0 24 20" fill="none" xmlns="http://www.w3.org/2000/svg">
<path d="M23.8933 2.37659C23.1169 2.7107 22.3007 2.94335 21.4649 3.06881C21.8557 3.00182 22.4307 2.29844 22.6595 2.01373C23.0073 1.58429 23.2723 1.09404 23.4411 0.567897C23.4411 0.52882 23.4802 0.472997 23.4411 0.445085C23.4214 0.434335 23.3993 0.428702 23.3769 0.428702C23.3545 0.428702 23.3324 0.434335 23.3127 0.445085C22.4051 0.93657 21.4392 1.31169 20.4378 1.56156C20.4029 1.57222 20.3657 1.57318 20.3303 1.56433C20.2949 1.55548 20.2626 1.53715 20.2368 1.51132C20.1588 1.4185 20.0749 1.33086 19.9856 1.24895C19.5771 0.882994 19.1137 0.583477 18.6123 0.361349C17.9355 0.0836683 17.2044 -0.0365891 16.4743 0.00965863C15.7658 0.0544002 15.0742 0.244419 14.4423 0.567897C13.8201 0.908938 13.2732 1.37225 12.8346 1.93C12.3732 2.50406 12.0401 3.17028 11.8576 3.88383C11.7072 4.56257 11.6902 5.26407 11.8074 5.94932C11.8074 6.06655 11.8074 6.08329 11.7069 6.06655C7.72667 5.4804 4.46098 4.06805 1.7926 1.03682C1.67537 0.90284 1.61396 0.90284 1.51906 1.03682C0.357928 2.80085 0.921749 5.59204 2.37317 6.97089C2.56855 7.15511 2.76952 7.33375 2.98165 7.50122C2.31618 7.45397 1.66697 7.27364 1.07247 6.97089C0.960825 6.89832 0.899419 6.9374 0.893837 7.07137C0.878012 7.25712 0.878012 7.44387 0.893837 7.62961C1.01032 8.51978 1.36113 9.36304 1.91039 10.0732C2.45965 10.7833 3.18766 11.3348 4.01997 11.6713C4.22287 11.7582 4.43428 11.8236 4.65078 11.8666C4.03472 11.9879 3.40288 12.0068 2.78068 11.9225C2.64671 11.8946 2.59646 11.9671 2.64671 12.0955C3.46732 14.3285 5.2481 15.0095 6.55437 15.3891C6.73301 15.417 6.91165 15.417 7.11261 15.4617C7.11261 15.4617 7.11261 15.4617 7.07912 15.4952C6.69393 16.1986 5.13645 16.6731 4.4219 16.9187C3.11768 17.3872 1.72713 17.5662 0.346763 17.4434C0.12905 17.41 0.0788087 17.4155 0.0229849 17.4434C-0.032839 17.4714 0.0229849 17.5328 0.0843911 17.5886C0.36351 17.7728 0.642629 17.9347 0.932913 18.091C1.79709 18.5624 2.7107 18.9368 3.65712 19.2075C8.55845 20.5584 14.0738 19.5648 17.7526 15.9083C20.6443 13.0389 21.6603 9.08103 21.6603 5.11754C21.6603 4.96682 21.8445 4.8775 21.9506 4.79934C22.6822 4.22932 23.3271 3.55614 23.8653 2.80085C23.9586 2.68826 24.0063 2.54491 23.9993 2.39892V2.39892C23.9993 2.31518 23.9993 2.33193 23.8933 2.37659Z" fill="#0F1017"/>
</svg>
