<svg width="32" height="32" viewBox="0 0 32 32" fill="none" xmlns="http://www.w3.org/2000/svg">
<g clip-path="url(#clip0_70_10)">
<path fill-rule="evenodd" clip-rule="evenodd" d="M32 16C32 24.8366 24.8366 32 16 32C7.16344 32 0 24.8366 0 16C0 7.16344 7.16344 0 16 0C24.8366 0 32 7.16344 32 16ZM22.5334 10.8667C23.2001 10.8 23.9334 10.6 24.5334 10.2667C24.0667 11.0667 23.4667 11.7333 22.6667 12.4V12.8667C22.6667 17.8667 19.1334 23.6 12.6667 23.6C10.6667 23.6 8.80006 22.9333 7.26672 21.8667C7.60006 21.9333 7.86672 21.9333 8.13339 21.9333C9.73339 21.9333 11.2667 21.3333 12.4667 20.3333C10.9334 20.3333 9.66672 19.2667 9.20006 17.7333C9.40006 17.8 9.66672 17.8 9.86672 17.8C10.2001 17.8 10.5334 17.7333 10.8001 17.6667C9.20006 17.2667 8.00006 15.7333 8.00006 13.9333V13.8667C8.46672 14.1333 9.00006 14.3333 9.60006 14.3333C8.66672 13.6667 8.06672 12.5333 8.06672 11.2C8.06672 10.4667 8.20006 9.79999 8.53339 9.26666C10.2667 11.5333 12.8667 13.0667 15.8001 13.2C15.7334 12.9333 15.7334 12.6 15.7334 12.3333C15.7334 10.2 17.3334 8.53333 19.2667 8.53333C20.2667 8.53333 21.1334 8.99999 21.8001 9.73333C22.6667 9.53333 23.4001 9.19999 24.0667 8.79999C23.8001 9.66666 23.2667 10.4 22.5334 10.8667Z" fill="black"/>
</g>
<defs>
<clipPath id="clip0_70_10">
<rect width="32" height="32" fill="white"/>
</clipPath>
</defs>
</svg>
